P3
80 80
255
0 0 0 0 0 0 0 0 0 0 0 0 0 0 0 0 0 0 0 0 0 0 0 0 
0 0 0 0 0 0 0 0 0 0 0 0 0 0 0 0 0 0 0 0 0 0 0 0 
0 0 0 0 0 0 0 0 0 0 0 0 0 0 0 0 0 0 0 0 0 0 0 0 
0 0 0 0 0 0 0 0 0 0 0 0 0 0 0 0 0 0 0 0 0 0 0 0 
0 0 0 0 0 0 0 0 0 0 0 0 0 0 0 0 0 0 0 0 0 0 0 0 
0 0 0 0 0 0 0 0 0 0 0 0 0 0 0 0 0 0 0 0 0 0 0 0 
0 0 0 0 0 0 0 0 0 0 0 0 0 0 0 0 0 0 0 0 0 0 0 0 
0 0 0 0 0 0 0 0 0 0 0 0 0 0 0 0 0 0 0 0 0 0 0 0 
0 0 0 0 0 0 0 0 0 0 0 0 0 0 0 0 0 0 0 0 0 0 0 0 
0 0 0 0 0 0 0 0 0 0 0 0 0 0 0 0 0 0 0 0 0 0 0 0 

0 0 0 0 0 0 0 0 0 0 0 0 0 0 0 0 0 0 0 0 0 0 0 0 
0 0 0 0 0 0 0 0 0 0 0 0 0 0 0 0 0 0 0 0 0 0 0 0 
0 0 0 0 0 0 0 0 0 0 0 0 0 0 0 0 0 0 0 0 0 0 0 0 
0 0 0 0 0 0 0 0 0 0 0 0 0 0 0 0 0 0 0 0 0 0 0 0 
0 0 0 0 0 0 0 0 0 0 0 0 0 0 0 0 0 0 0 0 0 0 0 0 
0 0 0 0 0 0 0 0 0 0 0 0 0 0 0 0 0 0 0 0 0 0 0 0 
0 0 0 0 0 0 0 0 0 0 0 0 0 0 0 0 0 0 0 0 0 0 0 0 
0 0 0 0 0 0 0 0 0 0 0 0 0 0 0 0 0 0 0 0 0 0 0 0 
0 0 0 0 0 0 0 0 0 0 0 0 0 0 0 0 0 0 0 0 0 0 0 0 
0 0 0 0 0 0 0 0 0 0 0 0 0 0 0 0 0 0 0 0 0 0 0 0 

0 0 0 0 0 0 0 0 0 0 0 0 0 0 0 0 0 0 0 0 0 0 0 0 
0 0 0 0 0 0 0 0 0 0 0 0 0 0 0 0 0 0 0 0 0 0 0 0 
0 0 0 0 0 0 0 0 0 0 0 0 0 0 0 0 0 0 0 0 0 0 0 0 
0 0 0 0 0 0 0 0 0 0 0 0 0 0 0 0 0 0 0 0 0 0 0 0 
0 0 0 0 0 0 0 0 0 0 0 0 0 0 0 0 0 0 0 0 0 0 0 0 
0 0 0 0 0 0 0 0 0 0 0 0 0 0 0 0 0 0 0 0 0 0 0 0 
0 0 0 0 0 0 0 0 0 0 0 0 0 0 0 0 0 0 0 0 0 0 0 0 
0 0 0 0 0 0 0 0 0 0 0 0 0 0 0 0 0 0 0 0 0 0 0 0 
0 0 0 0 0 0 0 0 0 0 0 0 0 0 0 0 0 0 0 0 0 0 0 0 
0 0 0 0 0 0 0 0 0 0 0 0 0 0 0 0 0 0 0 0 0 0 0 0 

0 0 0 0 0 0 0 0 0 0 0 0 0 0 0 0 0 0 0 0 0 0 0 0 
0 0 0 0 0 0 0 0 0 0 0 0 0 0 0 0 0 0 0 0 0 0 0 0 
0 0 0 0 0 0 0 0 0 0 0 0 0 0 0 0 0 0 0 0 0 0 0 0 
0 0 0 0 0 0 0 0 0 0 0 0 0 0 0 0 0 0 0 0 0 0 0 0 
0 0 0 0 0 0 0 0 0 0 0 0 0 0 0 0 0 0 0 0 0 0 0 0 
0 0 0 0 0 0 0 0 0 0 0 0 0 0 0 0 0 0 0 0 0 0 0 0 
0 0 0 0 0 0 0 0 0 0 0 0 0 0 0 0 0 0 0 0 0 0 0 0 
0 0 0 0 0 0 0 0 0 0 0 0 0 0 0 0 0 0 0 0 0 0 0 0 
0 0 0 0 0 0 0 0 0 0 0 0 0 0 0 0 0 0 0 0 0 0 0 0 
0 0 0 0 0 0 0 0 0 0 0 0 0 0 0 0 0 0 0 0 0 0 0 0 

0 0 0 0 0 0 0 0 0 0 0 0 0 0 0 0 0 0 0 0 0 0 0 0 
0 0 0 0 0 0 0 0 0 0 0 0 0 0 0 0 0 0 0 0 0 0 0 0 
0 0 0 0 0 0 0 0 0 0 0 0 0 0 0 0 0 0 0 0 0 0 0 0 
0 0 0 0 0 0 0 0 0 0 0 0 0 0 0 0 0 0 0 0 0 0 0 0 
0 0 0 0 0 0 0 0 0 0 0 0 0 0 0 0 0 0 0 0 0 0 0 0 
0 0 0 0 0 0 0 0 0 0 0 0 0 0 0 0 0 0 0 0 0 0 0 0 
0 0 0 0 0 0 0 0 0 0 0 0 0 0 0 0 0 0 0 0 0 0 0 0 
0 0 0 0 0 0 0 0 0 0 0 0 0 0 0 0 0 0 0 0 0 0 0 0 
0 0 0 0 0 0 0 0 0 0 0 0 0 0 0 0 0 0 0 0 0 0 0 0 
0 0 0 0 0 0 0 0 0 0 0 0 0 0 0 0 0 0 0 0 0 0 0 0 

0 0 0 0 0 0 0 0 0 0 0 0 0 0 0 0 0 0 0 0 0 0 0 0 
0 0 0 0 0 0 0 0 0 0 0 0 0 0 0 0 0 0 0 0 0 0 0 0 
0 0 0 0 0 0 0 0 0 0 0 0 0 0 0 0 0 0 0 0 0 0 0 0 
0 0 0 0 0 0 0 0 0 0 0 0 0 0 0 0 0 0 0 0 0 0 0 0 
0 0 0 0 0 0 0 0 0 0 0 0 0 0 0 0 0 0 0 0 0 0 0 0 
0 0 0 0 0 0 0 0 0 0 0 0 0 0 0 0 0 0 0 0 0 0 0 0 
0 0 0 0 0 0 0 0 0 0 0 0 0 0 0 0 0 0 0 0 0 0 0 0 
0 0 0 0 0 0 0 0 0 0 0 0 0 0 0 0 0 0 0 0 0 0 0 0 
0 0 0 0 0 0 0 0 0 0 0 0 0 0 0 0 0 0 0 0 0 0 0 0 
0 0 0 0 0 0 0 0 0 0 0 0 0 0 0 0 0 0 0 0 0 0 0 0 

0 0 0 0 0 0 0 0 0 0 0 0 0 0 0 0 0 0 0 0 0 0 0 0 
0 0 0 0 0 0 0 0 0 0 0 0 0 0 0 0 0 0 0 0 0 0 0 0 
0 0 0 0 0 0 0 0 0 0 0 0 0 0 0 0 0 0 0 0 0 0 0 0 
0 0 0 0 0 0 0 0 0 0 0 0 0 0 0 0 0 0 0 0 0 0 0 0 
0 0 0 0 0 0 0 0 0 0 0 0 0 0 0 0 0 0 0 0 0 0 0 0 
0 0 0 0 0 0 0 0 0 0 0 0 0 0 0 0 0 0 0 0 0 0 0 0 
0 0 0 0 0 0 0 0 0 0 0 0 0 0 0 0 0 0 0 0 0 0 0 0 
0 0 0 0 0 0 0 0 0 0 0 0 0 0 0 0 0 0 0 0 0 0 0 0 
0 0 0 0 0 0 0 0 0 0 0 0 0 0 0 0 0 0 0 0 0 0 0 0 
0 0 0 0 0 0 0 0 0 0 0 0 0 0 0 0 0 0 0 0 0 0 0 0 

0 0 0 0 0 0 0 0 0 0 0 0 0 0 0 0 0 0 0 0 0 0 0 0 
0 0 0 0 0 0 0 0 0 0 0 0 0 0 0 0 0 0 0 0 0 0 0 0 
0 0 0 0 0 0 0 0 0 0 0 0 0 0 0 0 0 0 0 0 0 0 0 0 
0 0 0 0 0 0 0 0 0 0 0 0 0 0 0 0 0 0 0 0 0 0 0 0 
0 0 0 0 0 0 0 0 0 0 0 0 0 0 0 0 0 0 0 0 0 0 0 0 
0 0 0 0 0 0 0 0 0 0 0 0 0 0 0 0 0 0 0 0 0 0 0 0 
0 0 0 0 0 0 0 0 0 0 0 0 0 0 0 0 0 0 0 0 0 0 0 0 
0 0 0 0 0 0 0 0 0 0 0 0 0 0 0 0 0 0 0 0 0 0 0 0 
0 0 0 0 0 0 0 0 0 0 0 0 0 0 0 0 0 0 0 0 0 0 0 0 
0 0 0 0 0 0 0 0 0 0 0 0 0 0 0 0 0 0 0 0 0 0 0 0 

0 0 0 0 0 0 0 0 0 0 0 0 0 0 0 0 0 0 0 0 0 0 0 0 
0 0 0 0 0 0 0 0 0 0 0 0 0 0 0 0 0 0 0 0 0 0 0 0 
0 0 0 0 0 0 0 0 0 0 0 0 0 0 0 0 0 0 0 0 0 0 0 0 
0 0 0 0 0 0 0 0 0 0 0 0 0 0 0 0 0 0 0 0 0 0 0 0 
0 0 0 0 0 0 0 0 0 0 0 0 0 0 0 0 0 0 0 0 0 0 0 0 
0 0 0 0 0 0 0 0 0 0 0 0 0 0 0 0 0 0 0 0 0 0 0 0 
0 0 0 0 0 0 0 0 0 0 0 0 0 0 0 0 0 0 0 0 0 0 0 0 
0 0 0 0 0 0 0 0 0 0 0 0 0 0 0 0 0 0 0 0 0 0 0 0 
0 0 0 0 0 0 0 0 0 0 0 0 0 0 0 0 0 0 0 0 0 0 0 0 
0 0 0 0 0 0 0 0 0 0 0 0 0 0 0 0 0 0 0 0 0 0 0 0 

0 0 0 0 0 0 0 0 0 0 0 0 0 0 0 0 0 0 0 0 0 0 0 0 
0 0 0 0 0 0 0 0 0 0 0 0 0 0 0 0 0 0 0 0 0 0 0 0 
0 0 0 0 0 0 0 0 0 0 0 0 0 0 0 0 0 0 0 0 0 0 0 0 
0 0 0 0 0 0 0 0 0 0 0 0 0 0 0 0 0 0 0 0 0 0 0 0 
0 0 0 0 0 0 0 0 0 0 0 0 0 0 0 0 0 0 0 0 0 0 0 0 
0 0 0 0 0 0 0 0 0 0 0 0 0 0 0 0 0 0 0 0 0 0 0 0 
0 0 0 0 0 0 0 0 0 0 0 0 0 0 0 0 0 0 0 0 0 0 0 0 
0 0 0 0 0 0 0 0 0 0 0 0 0 0 0 0 0 0 0 0 0 0 0 0 
0 0 0 0 0 0 0 0 0 0 0 0 0 0 0 0 0 0 0 0 0 0 0 0 
0 0 0 0 0 0 0 0 0 0 0 0 0 0 0 0 0 0 0 0 0 0 0 0 

0 0 0 0 0 0 0 0 0 0 0 0 0 0 0 0 0 0 0 0 0 0 0 0 
0 0 0 0 0 0 0 0 0 0 0 0 0 0 0 0 0 0 0 0 0 0 0 0 
0 0 0 0 0 0 0 0 0 0 0 0 0 0 0 0 0 0 0 0 0 0 0 0 
0 0 0 0 0 0 0 0 0 0 0 0 0 0 0 0 0 0 0 0 0 0 0 0 
0 0 0 0 0 0 0 0 0 0 0 0 0 0 0 0 0 0 0 0 0 0 0 0 
0 0 0 0 0 0 0 0 0 0 0 0 0 0 0 0 0 0 0 0 0 0 0 0 
0 0 0 0 0 0 0 0 0 0 0 0 0 0 0 0 0 0 0 0 0 0 0 0 
0 0 0 0 0 0 0 0 0 0 0 0 0 0 0 0 0 0 0 0 0 0 0 0 
0 0 0 0 0 0 0 0 0 0 0 0 0 0 0 0 0 0 0 0 0 0 0 0 
0 0 0 0 0 0 0 0 0 0 0 0 0 0 0 0 0 0 0 0 0 0 0 0 

0 0 0 0 0 0 0 0 0 0 0 0 0 0 0 0 0 0 0 0 0 0 0 0 
0 0 0 0 0 0 0 0 0 0 0 0 0 0 0 0 0 0 0 0 0 0 0 0 
0 0 0 0 0 0 0 0 0 0 0 0 0 0 0 0 0 0 0 0 0 0 0 0 
0 0 0 0 0 0 0 0 0 0 0 0 0 0 0 0 0 0 0 0 0 0 0 0 
0 0 0 0 0 0 0 0 0 0 0 0 0 0 0 0 0 0 0 0 0 0 0 0 
0 0 0 0 0 0 0 0 0 0 0 0 0 0 0 0 0 0 0 0 0 0 0 0 
0 0 0 0 0 0 0 0 0 0 0 0 0 0 0 0 0 0 0 0 0 0 0 0 
0 0 0 0 0 0 0 0 0 0 0 0 0 0 0 0 0 0 0 0 0 0 0 0 
0 0 0 0 0 0 0 0 0 0 0 0 0 0 0 0 0 0 0 0 0 0 0 0 
0 0 0 0 0 0 0 0 0 0 0 0 0 0 0 0 0 0 0 0 0 0 0 0 

0 0 0 0 0 0 0 0 0 0 0 0 0 0 0 0 0 0 0 0 0 0 0 0 
0 0 0 0 0 0 0 0 0 0 0 0 0 0 0 0 0 0 0 0 0 0 0 0 
0 0 0 0 0 0 0 0 0 0 0 0 0 0 0 0 0 0 0 0 0 0 0 0 
0 0 0 0 0 0 0 0 0 0 0 0 0 0 0 0 0 0 0 0 0 0 0 0 
0 0 0 0 0 0 0 0 0 0 0 0 0 0 0 0 0 0 0 0 0 0 0 0 
0 0 0 0 0 0 0 0 0 0 0 0 0 0 0 0 0 0 0 0 0 0 0 0 
0 0 0 0 0 0 0 0 0 0 0 0 0 0 0 0 0 0 0 0 0 0 0 0 
0 0 0 0 0 0 0 0 0 0 0 0 0 0 0 0 0 0 0 0 0 0 0 0 
0 0 0 0 0 0 0 0 0 0 0 0 0 0 0 0 0 0 0 0 0 0 0 0 
0 0 0 0 0 0 0 0 0 0 0 0 0 0 0 0 0 0 0 0 0 0 0 0 

0 0 0 0 0 0 0 0 0 0 0 0 0 0 0 0 0 0 0 0 0 0 0 0 
0 0 0 0 0 0 0 0 0 0 0 0 0 0 0 0 0 0 0 0 0 0 0 0 
0 0 0 0 0 0 0 0 0 0 0 0 0 0 0 0 0 0 0 0 0 0 0 0 
0 0 0 0 0 0 0 0 0 0 0 0 0 0 0 0 0 0 0 0 0 0 0 0 
0 0 0 0 0 0 0 0 0 0 0 0 0 0 0 0 0 0 0 0 0 0 0 0 
0 0 0 0 0 0 0 0 0 0 0 0 0 0 0 0 0 0 0 0 0 0 0 0 
0 0 0 0 0 0 0 0 0 0 0 0 0 0 0 0 0 0 0 0 0 0 0 0 
0 0 0 0 0 0 0 0 0 0 0 0 0 0 0 0 0 0 0 0 0 0 0 0 
0 0 0 0 0 0 0 0 0 0 0 0 0 0 0 0 0 0 0 0 0 0 0 0 
0 0 0 0 0 0 0 0 0 0 0 0 0 0 0 0 0 0 0 0 0 0 0 0 

0 0 0 0 0 0 0 0 0 0 0 0 0 0 0 0 0 0 0 0 0 0 0 0 
0 0 0 0 0 0 0 0 0 0 0 0 0 0 0 0 0 0 0 0 0 0 0 0 
0 0 0 0 0 0 0 0 0 0 0 0 0 0 0 0 0 0 0 0 0 0 0 0 
0 0 0 0 0 0 0 0 0 0 0 0 0 0 0 0 0 0 0 0 0 0 0 0 
0 0 0 0 0 0 0 0 0 0 0 0 0 0 0 0 0 0 0 0 0 0 0 0 
0 0 0 0 0 0 0 0 0 0 0 0 0 0 0 0 0 0 0 0 0 0 0 0 
0 0 0 0 0 0 0 0 0 0 0 0 0 0 0 0 0 0 0 0 0 0 0 0 
0 0 0 0 0 0 0 0 0 0 0 0 0 0 0 0 0 0 0 0 0 0 0 0 
0 0 0 0 0 0 0 0 0 0 0 0 0 0 0 0 0 0 0 0 0 0 0 0 
0 0 0 0 0 0 0 0 0 0 0 0 0 0 0 0 0 0 0 0 0 0 0 0 

0 0 0 0 0 0 0 0 0 0 0 0 0 0 0 0 0 0 0 0 0 0 0 0 
0 0 0 0 0 0 0 0 0 0 0 0 0 0 0 0 0 0 0 0 0 0 0 0 
0 0 0 0 0 0 0 0 0 0 0 0 0 0 0 0 0 0 0 0 0 0 0 0 
0 0 0 0 0 0 0 0 0 0 0 0 0 0 0 0 0 0 0 0 0 0 0 0 
0 0 0 0 0 0 0 0 0 0 0 0 0 0 0 0 0 0 0 0 0 0 0 0 
0 0 0 0 0 0 0 0 0 0 0 0 0 0 0 0 0 0 0 0 0 0 0 0 
0 0 0 0 0 0 0 0 0 0 0 0 0 0 0 0 0 0 0 0 0 0 0 0 
0 0 0 0 0 0 0 0 0 0 0 0 0 0 0 0 0 0 0 0 0 0 0 0 
0 0 0 0 0 0 0 0 0 0 0 0 0 0 0 0 0 0 0 0 0 0 0 0 
0 0 0 0 0 0 0 0 0 0 0 0 0 0 0 0 0 0 0 0 0 0 0 0 

0 0 0 0 0 0 0 0 0 0 0 0 0 0 0 0 0 0 0 0 0 0 0 0 
0 0 0 0 0 0 0 0 0 0 0 0 0 0 0 0 0 0 0 0 0 0 0 0 
0 0 0 0 0 0 0 0 0 0 0 0 0 0 0 0 0 0 0 0 0 0 0 0 
0 0 0 0 0 0 0 0 0 0 0 0 0 0 0 0 0 0 0 0 0 0 0 0 
0 0 0 0 0 0 0 0 0 0 0 0 0 0 0 0 0 0 0 0 0 0 0 0 
0 0 0 0 0 0 0 0 0 0 0 0 0 0 0 0 0 0 0 0 0 0 0 0 
0 0 0 0 0 0 0 0 0 0 0 0 0 0 0 0 0 0 0 0 0 0 0 0 
0 0 0 0 0 0 0 0 0 0 0 0 0 0 0 0 0 0 0 0 0 0 0 0 
0 0 0 0 0 0 0 0 0 0 0 0 0 0 0 0 0 0 0 0 0 0 0 0 
0 0 0 0 0 0 0 0 0 0 0 0 0 0 0 0 0 0 0 0 0 0 0 0 

0 0 0 0 0 0 0 0 0 0 0 0 0 0 0 0 0 0 0 0 0 0 0 0 
0 0 0 0 0 0 0 0 0 0 0 0 0 0 0 0 0 0 0 0 0 0 0 0 
0 0 0 0 0 0 0 0 0 0 0 0 0 0 0 0 0 0 0 0 0 0 0 0 
0 0 0 0 0 0 0 0 0 0 0 0 0 0 0 0 0 0 0 0 0 0 0 0 
0 0 0 0 0 0 0 0 0 0 0 0 0 0 0 0 0 0 0 0 0 0 0 0 
0 0 0 0 0 0 0 0 0 0 0 0 0 0 0 0 0 0 0 0 0 0 0 0 
0 0 0 0 0 0 0 0 0 0 0 0 0 0 0 0 0 0 0 0 0 0 0 0 
0 0 0 0 0 0 0 0 0 0 0 0 0 0 0 0 0 0 0 0 0 0 0 0 
0 0 0 0 0 0 0 0 0 0 0 0 0 0 0 0 0 0 0 0 0 0 0 0 
0 0 0 0 0 0 0 0 0 0 0 0 0 0 0 0 0 0 0 0 0 0 0 0 

0 0 0 0 0 0 0 0 0 0 0 0 0 0 0 0 0 0 0 0 0 0 0 0 
0 0 0 0 0 0 0 0 0 0 0 0 0 0 0 0 0 0 0 0 0 0 0 0 
0 0 0 0 0 0 0 0 0 0 0 0 0 0 0 0 0 0 0 0 0 0 0 0 
0 0 0 0 0 0 0 0 0 0 0 0 0 0 0 0 0 0 0 0 0 0 0 0 
0 0 0 0 0 0 0 0 0 0 0 0 0 0 0 0 0 0 0 0 0 132 42 104 
132 42 104 0 0 0 0 0 0 0 0 0 0 0 0 0 0 0 0 0 0 0 0 0 
0 0 0 0 0 0 0 0 0 0 0 0 0 0 0 0 0 0 0 0 0 0 0 0 
0 0 0 0 0 0 0 0 0 0 0 0 0 0 0 0 0 0 0 0 0 0 0 0 
0 0 0 0 0 0 0 0 0 0 0 0 0 0 0 0 0 0 0 0 0 0 0 0 
0 0 0 0 0 0 0 0 0 0 0 0 0 0 0 0 0 0 0 0 0 0 0 0 

0 0 0 0 0 0 0 0 0 0 0 0 0 0 0 0 0 0 0 0 0 0 0 0 
0 0 0 0 0 0 0 0 0 0 0 0 0 0 0 0 0 0 0 0 0 0 0 0 
0 0 0 0 0 0 0 0 0 0 0 0 0 0 0 0 0 0 0 0 0 0 0 0 
0 0 0 0 0 0 0 0 0 0 0 0 0 0 0 0 0 0 0 0 0 0 0 0 
0 0 0 0 0 0 0 0 0 0 0 0 0 0 0 5 0 0 79 25 51 221 80 152 
237 83 160 79 25 51 0 0 0 0 0 0 0 0 0 0 0 0 0 0 0 0 0 0 
0 0 0 0 0 0 0 0 0 0 0 0 0 0 0 0 0 0 0 0 0 0 0 0 
0 0 0 0 0 0 0 0 0 0 0 0 0 0 0 0 0 0 0 0 0 0 0 0 
0 0 0 0 0 0 0 0 0 0 0 0 0 0 0 0 0 0 0 0 0 0 0 0 
0 0 0 0 0 0 0 0 0 0 0 0 0 0 0 0 0 0 0 0 0 0 0 0 

0 0 0 0 0 0 0 0 0 0 0 0 0 0 0 0 0 0 0 0 0 0 0 0 
0 0 0 0 0 0 0 0 0 0 0 0 0 0 0 0 0 0 0 0 0 0 0 0 
0 0 0 0 0 0 0 0 0 0 0 0 0 0 0 0 0 0 0 0 0 0 0 0 
0 0 0 0 0 0 0 0 0 0 0 0 132 42 104 69 23 69 0 0 0 0 0 0 
0 0 0 0 0 0 0 0 0 0 0 0 0 0 0 52 4 27 221 80 152 237 83 160 
237 83 160 221 80 152 52 4 27 0 3 1 0 0 0 0 0 0 0 0 0 0 0 0 
0 0 0 0 0 0 65 13 56 132 42 104 4 0 5 0 0 0 0 0 0 0 0 0 
0 0 0 0 0 0 0 0 0 0 0 0 0 0 0 0 0 0 0 0 0 0 0 0 
0 0 0 0 0 0 0 0 0 0 0 0 0 0 0 0 0 0 0 0 0 0 0 0 
0 0 0 0 0 0 0 0 0 0 0 0 0 0 0 0 0 0 0 0 0 0 0 0 

0 0 0 0 0 0 0 0 0 0 0 0 0 0 0 0 0 0 0 0 0 0 0 0 
0 0 0 0 0 0 0 0 0 0 0 0 0 0 0 0 0 0 0 0 0 0 0 0 
0 0 0 0 0 0 0 0 0 0 0 0 0 0 0 0 0 0 0 0 0 0 0 0 
0 0 0 0 0 0 0 0 0 0 0 0 209 71 213 235 80 229 157 53 141 31 2 24 
0 0 0 0 0 0 0 0 0 0 0 0 12 0 0 157 53 141 237 83 160 237 83 160 
237 83 160 237 83 160 157 53 141 0 0 0 0 0 0 0 0 0 0 0 0 0 0 0 
31 2 24 157 53 141 235 80 229 209 71 213 0 0 0 0 0 0 0 0 0 0 0 0 
0 0 0 0 0 0 0 0 0 0 0 0 0 0 0 0 0 0 0 0 0 0 0 0 
0 0 0 0 0 0 0 0 0 0 0 0 0 0 0 0 0 0 0 0 0 0 0 0 
0 0 0 0 0 0 0 0 0 0 0 0 0 0 0 0 0 0 0 0 0 0 0 0 

0 0 0 0 0 0 0 0 0 0 0 0 0 0 0 0 0 0 0 0 0 0 0 0 
0 0 0 0 0 0 0 0 0 0 0 0 0 0 0 0 0 0 0 0 0 0 0 0 
0 0 0 0 0 0 0 0 0 0 0 0 0 0 0 0 0 0 0 0 0 0 0 0 
0 0 0 0 0 0 0 0 0 69 23 69 235 80 229 235 80 229 235 80 229 224 79 217 
132 42 104 4 0 5 0 0 0 0 0 0 132 42 104 237 83 160 237 83 160 237 83 160 
237 83 160 237 83 160 237 83 160 132 42 104 2 0 0 0 0 0 0 0 0 132 42 104 
224 79 217 235 80 229 235 80 229 235 80 229 69 23 69 2 0 0 0 0 0 0 0 0 
0 0 0 0 0 0 0 0 0 0 0 0 0 0 0 0 0 0 0 0 0 0 0 0 
0 0 0 0 0 0 0 0 0 0 0 0 0 0 0 0 0 0 0 0 0 0 0 0 
0 0 0 0 0 0 0 0 0 0 0 0 0 0 0 0 0 0 0 0 0 0 0 0 

0 0 0 0 0 0 0 0 0 0 0 0 0 0 0 0 0 0 0 0 0 0 0 0 
0 0 0 0 0 0 0 0 0 0 0 0 0 0 0 0 0 0 0 0 0 0 0 0 
0 0 0 0 0 0 0 0 0 0 0 0 0 0 0 0 0 0 0 0 0 0 0 0 
0 0 0 0 0 0 0 0 0 157 53 141 235 80 229 235 80 229 235 80 229 235 80 229 
235 80 229 179 74 206 69 23 69 79 25 51 221 80 152 237 83 160 234 97 165 237 83 160 
234 97 165 237 83 160 234 97 165 237 83 160 64 25 50 79 25 51 179 74 206 235 80 229 
235 80 229 235 80 229 235 80 229 235 80 229 157 53 141 0 0 0 0 0 0 0 0 0 
0 0 0 0 0 0 0 0 0 0 0 0 0 0 0 0 0 0 0 0 0 0 0 0 
0 0 0 0 0 0 0 0 0 0 0 0 0 0 0 0 0 0 0 0 0 0 0 0 
0 0 0 0 0 0 0 0 0 0 0 0 0 0 0 0 0 0 0 0 0 0 0 0 

0 0 0 0 0 0 0 0 0 0 0 0 0 0 0 0 0 0 0 0 0 0 0 0 
0 0 0 0 0 0 0 0 0 0 0 0 0 0 0 0 0 0 0 0 0 0 0 0 
0 0 0 0 0 0 0 0 0 0 0 0 0 0 0 0 0 0 0 0 0 0 0 0 
0 0 0 0 0 0 0 0 0 179 74 206 224 79 217 235 80 229 233 84 226 232 93 226 
232 93 226 232 93 226 230 94 223 221 80 152 234 97 165 234 97 165 234 97 165 234 97 165 
234 97 165 234 97 165 234 97 165 234 97 165 221 80 152 221 95 220 233 84 226 232 93 226 
233 84 226 233 84 226 233 84 226 235 80 229 179 74 206 0 0 0 0 0 0 0 0 0 
0 0 0 0 0 0 0 0 0 0 0 0 0 0 0 0 0 0 0 0 0 0 0 0 
0 0 0 0 0 0 0 0 0 0 0 0 0 0 0 0 0 0 0 0 0 0 0 0 
0 0 0 0 0 0 0 0 0 0 0 0 0 0 0 0 0 0 0 0 0 0 0 0 

0 0 0 0 0 0 0 0 0 0 0 0 0 0 0 0 0 0 0 0 0 0 0 0 
0 0 0 0 0 0 0 0 0 0 0 0 0 0 0 0 0 0 0 0 0 0 0 0 
0 0 0 0 0 0 0 0 0 0 0 0 0 0 0 0 0 0 0 0 0 0 0 0 
0 0 0 0 0 0 3 0 0 209 71 213 233 84 226 233 84 226 232 93 226 232 93 226 
232 93 226 232 93 226 228 102 219 233 104 173 233 104 173 233 104 173 233 104 173 233 104 173 
233 104 173 233 104 173 233 104 173 233 104 173 233 104 173 228 102 219 229 101 224 232 93 226 
232 93 226 232 93 226 233 84 226 233 84 226 209 71 213 0 0 0 0 0 0 0 0 0 
0 0 0 0 0 0 0 0 0 0 0 0 0 0 0 0 0 0 0 0 0 0 0 0 
0 0 0 0 0 0 0 0 0 0 0 0 0 0 0 0 0 0 0 0 0 0 0 0 
0 0 0 0 0 0 0 0 0 0 0 0 0 0 0 0 0 0 0 0 0 0 0 0 

0 0 0 0 0 0 0 0 0 0 0 0 0 0 0 0 0 0 0 0 0 0 0 0 
0 0 0 0 0 0 0 0 0 0 0 0 0 0 0 0 0 0 0 0 0 0 0 0 
0 0 0 0 0 0 0 0 0 0 0 0 0 0 0 0 0 0 0 0 0 0 0 0 
0 0 0 0 0 0 69 23 69 230 94 223 232 93 226 230 94 223 230 94 223 229 101 224 
229 101 224 229 108 222 231 114 184 231 114 184 231 114 184 231 112 173 231 112 173 231 112 173 
231 112 173 231 112 173 231 112 173 231 114 184 231 114 184 231 114 184 229 101 224 229 101 224 
229 101 224 230 94 223 230 94 223 232 93 226 233 84 226 69 23 69 0 0 0 0 0 0 
0 0 0 0 0 0 0 0 0 0 0 0 0 0 0 0 0 0 0 0 0 0 0 0 
0 0 0 0 0 0 0 0 0 0 0 0 0 0 0 0 0 0 0 0 0 0 0 0 
0 0 0 0 0 0 0 0 0 0 0 0 0 0 0 0 0 0 0 0 0 0 0 0 

0 0 0 0 0 0 0 0 0 0 0 0 0 0 0 0 0 0 0 0 0 0 0 0 
0 0 0 0 0 0 0 0 0 0 0 0 0 0 0 0 0 0 0 0 0 0 0 0 
0 0 0 12 0 0 70 24 119 202 71 219 179 74 206 179 74 206 147 86 190 157 53 141 
132 42 104 69 23 69 132 42 104 230 94 223 230 94 223 229 101 224 229 101 224 229 108 222 
229 108 222 224 119 210 231 114 184 231 114 184 231 114 184 230 123 186 230 123 186 230 123 186 
231 112 173 230 123 186 230 123 186 231 114 184 231 114 184 231 114 184 224 119 210 229 108 222 
229 108 222 229 101 224 229 101 224 230 94 223 232 93 226 132 42 104 59 24 58 132 42 104 
157 53 141 157 53 141 179 74 206 179 74 206 209 71 213 70 24 119 0 0 0 0 0 0 
0 0 0 0 0 0 0 0 0 0 0 0 0 0 0 0 0 0 0 0 0 0 0 0 
0 0 0 0 0 0 0 0 0 0 0 0 0 0 0 0 0 0 0 0 0 0 0 0 

0 0 0 0 0 0 0 0 0 0 0 0 0 0 0 0 0 0 0 0 0 0 0 0 
0 0 0 0 0 0 0 0 0 0 0 0 0 0 0 0 0 0 0 0 0 0 0 0 
0 0 0 0 0 0 49 7 47 205 72 221 205 72 221 209 71 213 205 72 221 205 72 221 
208 81 220 208 90 219 221 95 220 229 101 224 229 101 224 229 108 222 229 108 222 229 108 222 
227 119 220 231 114 184 230 123 186 229 128 187 229 128 187 229 128 187 229 128 187 229 128 187 
229 128 187 229 128 187 229 128 187 229 128 187 229 128 187 230 123 186 230 123 186 227 119 220 
229 108 222 229 108 222 229 108 222 229 101 224 229 101 224 221 95 220 208 90 219 208 81 220 
205 72 221 205 72 221 205 72 221 202 71 219 205 72 221 58 8 51 0 0 0 0 0 0 
0 0 0 0 0 0 0 0 0 0 0 0 0 0 0 0 0 0 0 0 0 0 0 0 
0 0 0 0 0 0 0 0 0 0 0 0 0 0 0 0 0 0 0 0 0 0 0 0 

0 0 0 0 0 0 0 0 0 0 0 0 0 0 0 0 0 0 0 0 0 0 0 0 
0 0 0 0 0 0 0 0 0 0 0 0 0 0 0 0 0 0 0 0 0 0 0 0 
0 0 0 0 0 0 0 0 0 202 71 219 205 72 221 205 72 221 208 81 220 208 81 220 
208 90 219 209 95 218 221 95 220 229 108 222 229 108 222 229 108 222 227 119 220 227 119 220 
224 119 210 229 128 187 229 128 187 229 128 187 229 128 187 228 136 191 228 136 191 228 136 191 
228 136 191 228 136 191 228 136 191 226 135 191 229 128 187 229 128 187 229 128 187 224 119 210 
227 119 220 227 119 220 229 108 222 229 108 222 229 108 222 221 95 220 221 95 220 208 90 219 
208 81 220 208 81 220 205 72 221 202 71 219 202 71 219 0 0 0 0 0 0 0 0 0 
0 0 0 0 0 0 0 0 0 0 0 0 0 0 0 0 0 0 0 0 0 0 0 0 
0 0 0 0 0 0 0 0 0 0 0 0 0 0 0 0 0 0 0 0 0 0 0 0 

0 0 0 0 0 0 0 0 0 0 0 0 0 0 0 0 0 0 0 0 0 0 0 0 
0 0 0 0 0 0 0 0 0 0 0 0 0 0 0 0 0 0 0 0 0 0 0 0 
0 0 0 0 0 0 0 0 0 179 74 206 209 71 213 205 72 221 208 81 220 208 90 219 
208 90 219 221 95 220 226 108 220 226 108 220 224 118 218 227 119 220 227 119 220 225 130 218 
226 135 191 226 135 191 226 135 191 228 136 191 228 136 191 228 136 191 228 136 191 222 141 199 
228 136 191 222 141 199 228 136 191 228 136 191 228 136 191 226 135 191 226 135 191 229 128 187 
225 130 218 227 119 220 227 119 220 227 119 220 226 108 220 226 108 220 209 95 218 208 90 219 
208 90 219 208 81 220 208 81 220 202 71 219 179 74 206 0 0 0 0 0 0 0 0 0 
0 0 0 0 0 0 0 0 0 0 0 0 0 0 0 0 0 0 0 0 0 0 0 0 
0 0 0 0 0 0 0 0 0 0 0 0 0 0 0 0 0 0 0 0 0 0 0 0 

0 0 0 0 0 0 0 0 0 0 0 0 0 0 0 0 0 0 0 0 0 0 0 0 
0 0 0 0 0 0 0 0 0 0 0 0 0 0 0 0 0 0 0 0 0 0 0 0 
0 0 0 4 0 5 12 4 43 179 74 206 202 71 219 201 84 217 208 90 219 209 95 218 
208 101 217 209 110 215 226 108 220 224 118 218 224 118 218 225 130 218 225 130 218 220 129 214 
226 135 191 228 136 191 228 136 191 222 141 199 221 146 193 221 147 197 223 150 197 223 150 197 
223 150 197 223 150 197 221 147 197 223 150 197 228 136 191 221 146 193 226 135 191 226 135 191 
220 136 209 225 130 218 225 130 218 224 118 218 224 118 218 226 108 220 208 101 217 208 101 217 
209 95 218 201 84 217 201 84 217 209 71 213 179 74 206 12 4 43 0 0 0 0 0 0 
0 0 0 0 0 0 0 0 0 0 0 0 0 0 0 0 0 0 0 0 0 0 0 0 
0 0 0 0 0 0 0 0 0 0 0 0 0 0 0 0 0 0 0 0 0 0 0 0 

0 0 0 0 0 0 0 0 0 0 0 0 0 0 0 0 0 0 0 0 0 0 0 0 
0 0 0 0 0 0 0 0 0 0 0 0 0 0 0 0 0 0 41 21 79 70 24 119 
80 57 156 95 66 201 106 77 210 179 74 206 201 84 217 201 84 217 209 95 218 208 101 217 
208 101 217 209 110 215 224 118 218 224 118 218 225 130 218 225 130 218 225 130 218 222 141 199 
228 136 191 221 146 193 221 146 193 223 150 197 223 150 197 223 150 197 223 150 197 223 150 197 
223 150 197 223 150 197 223 150 197 223 150 197 221 147 197 221 146 193 222 141 199 221 146 193 
222 141 199 225 130 218 225 130 218 225 130 218 224 118 218 224 118 218 209 110 215 208 101 217 
208 101 217 208 90 219 201 84 217 201 84 217 145 95 204 106 77 210 95 66 201 80 57 156 
70 24 119 41 21 79 0 0 0 0 0 0 0 0 0 0 0 0 0 0 0 0 0 0 
0 0 0 0 0 0 0 0 0 0 0 0 0 0 0 0 0 0 0 0 0 0 0 0 

0 0 0 0 0 0 0 0 0 0 0 0 0 0 0 0 0 0 0 0 0 0 0 0 
0 0 0 0 0 0 0 0 0 4 0 5 70 24 119 84 52 197 90 57 209 96 64 210 
90 57 209 106 77 210 106 77 210 145 95 204 201 84 217 202 95 212 202 95 212 208 101 217 
209 110 215 210 120 211 224 118 218 220 129 214 220 129 214 218 139 213 218 139 213 221 146 193 
221 146 193 221 147 197 221 147 197 223 150 197 223 150 197 221 151 197 223 150 197 220 153 198 
223 150 197 220 153 198 223 150 197 221 151 197 223 150 197 223 150 197 221 146 193 221 146 193 
221 146 193 218 139 213 218 139 213 220 129 214 220 129 214 224 118 218 209 110 215 209 110 215 
208 101 217 202 95 212 202 95 212 202 71 219 145 95 204 106 77 210 96 64 210 96 64 210 
90 57 209 84 52 197 84 52 197 70 24 119 0 0 0 0 0 0 0 0 0 0 0 0 
0 0 0 0 0 0 0 0 0 0 0 0 0 0 0 0 0 0 0 0 0 0 0 0 

0 0 0 0 0 0 0 0 0 0 0 0 0 0 0 0 0 0 0 0 0 0 0 0 
0 0 0 0 0 0 0 0 0 0 0 0 70 24 119 84 52 197 90 57 209 96 64 210 
96 64 210 106 77 210 106 77 210 122 95 202 201 84 217 202 95 212 208 101 217 209 110 215 
209 110 215 210 120 211 220 129 214 220 129 214 218 139 213 218 139 213 220 136 209 221 146 193 
221 146 193 221 147 197 221 151 197 220 153 198 220 153 198 220 153 198 220 153 198 220 153 198 
220 153 198 220 153 198 220 153 198 220 153 198 220 153 198 221 147 197 221 151 197 221 146 193 
221 146 193 220 136 209 218 139 213 218 139 213 220 129 214 220 129 214 210 120 211 209 110 215 
209 110 215 208 101 217 202 95 212 202 95 212 122 95 202 106 77 210 106 77 210 96 64 210 
96 64 210 90 57 209 90 57 209 70 24 119 0 0 0 0 0 0 0 0 0 0 0 0 
0 0 0 0 0 0 0 0 0 0 0 0 0 0 0 0 0 0 0 0 0 0 0 0 

0 0 0 0 0 0 0 0 0 0 0 0 0 0 0 0 0 0 0 0 0 0 0 0 
0 0 0 0 0 0 0 0 0 0 0 0 0 0 0 84 52 197 90 57 209 96 64 210 
96 64 210 106 77 210 106 77 210 122 95 202 187 99 206 202 95 212 201 105 210 209 110 215 
210 120 211 210 120 211 220 129 214 220 129 214 218 139 213 218 139 213 211 142 205 221 146 193 
218 152 196 218 152 196 218 152 196 220 153 198 220 153 198 220 153 198 217 155 196 220 153 198 
217 155 196 220 153 198 217 155 196 220 153 198 220 153 198 218 152 196 218 152 196 218 152 196 
221 146 193 221 147 197 218 139 213 218 139 213 220 129 214 220 129 214 210 120 211 210 120 211 
209 110 215 201 105 210 202 95 212 201 84 217 122 95 202 106 77 210 106 77 210 96 64 210 
96 64 210 84 52 197 84 52 197 2 1 13 0 0 0 0 0 0 0 0 0 0 0 0 
0 0 0 0 0 0 0 0 0 0 0 0 0 0 0 0 0 0 0 0 0 0 0 0 

0 0 0 0 0 0 0 0 0 0 0 0 0 0 0 0 0 0 0 0 0 0 0 0 
0 0 0 0 0 0 0 0 0 0 0 0 0 0 0 41 21 79 84 52 197 96 64 210 
102 73 204 106 77 210 111 85 200 118 93 200 187 99 206 202 95 212 201 105 210 201 115 205 
210 120 211 208 126 208 220 136 209 209 134 204 218 139 213 211 142 205 221 147 197 212 151 192 
221 146 193 216 153 195 216 153 195 217 155 196 217 155 196 217 155 196 217 155 196 217 155 196 
217 155 196 217 155 196 217 155 196 217 155 196 217 155 196 216 153 195 216 153 195 218 152 196 
221 146 193 211 142 205 218 139 213 211 142 205 218 139 213 209 134 204 220 129 214 201 115 205 
209 110 215 201 105 210 201 105 210 187 99 206 111 85 200 111 85 200 106 77 210 102 73 204 
95 66 201 90 57 209 41 21 79 0 0 0 0 0 0 0 0 0 0 0 0 0 0 0 
0 0 0 0 0 0 0 0 0 0 0 0 0 0 0 0 0 0 0 0 0 0 0 0 

0 0 0 0 0 0 0 0 0 0 0 0 0 0 0 0 0 0 0 0 0 0 0 0 
0 0 0 0 0 0 0 0 0 0 0 0 0 0 0 0 0 0 80 57 156 95 66 201 
102 73 204 102 73 204 111 85 200 122 95 202 145 95 204 201 105 210 201 105 210 201 115 205 
208 126 208 208 126 208 209 134 204 218 139 213 211 142 205 211 142 205 211 146 195 215 152 191 
212 151 192 216 153 195 216 153 195 216 153 195 216 153 195 216 153 195 217 155 196 217 155 196 
217 155 196 217 155 196 217 155 196 216 153 195 216 153 195 216 153 195 216 153 195 215 152 191 
212 151 192 218 152 196 211 142 205 211 142 205 220 136 209 209 134 204 208 126 208 208 126 208 
201 115 205 201 105 210 201 105 210 145 95 204 122 95 202 111 85 200 102 73 204 102 73 204 
90 57 209 80 57 156 0 0 0 0 0 0 0 0 0 0 0 0 0 0 0 0 0 0 
0 0 0 0 0 0 0 0 0 0 0 0 0 0 0 0 0 0 0 0 0 0 0 0 

0 0 0 0 0 0 0 0 0 0 0 0 0 0 0 0 0 0 0 0 0 0 0 0 
0 0 0 0 0 0 0 0 0 0 0 0 0 0 0 0 0 0 12 4 43 84 52 197 
102 73 204 103 76 194 111 85 200 118 93 200 145 95 204 201 105 210 201 115 205 201 115 205 
208 126 208 208 126 208 209 134 204 211 142 205 211 142 205 211 142 205 211 146 195 212 151 192 
212 151 192 212 151 192 212 151 192 212 151 192 216 153 195 211 152 190 211 152 190 211 152 190 
211 152 190 211 152 190 215 152 191 212 151 192 216 153 195 212 151 192 212 151 192 212 151 192 
212 151 192 211 146 195 211 142 205 211 142 205 211 142 205 209 134 204 208 126 208 208 126 208 
201 115 205 201 115 205 201 105 210 145 95 204 118 93 200 111 85 200 111 85 200 95 66 201 
84 52 197 12 4 43 0 0 0 0 0 0 0 0 0 0 0 0 0 0 0 0 0 0 
0 0 0 0 0 0 0 0 0 0 0 0 0 0 0 0 0 0 0 0 0 0 0 0 

0 0 0 0 0 0 0 0 0 0 0 0 0 0 0 0 0 0 0 0 0 0 0 0 
0 0 0 0 0 0 0 0 0 0 0 0 0 0 0 0 0 0 0 3 1 70 24 119 
95 66 201 111 85 200 111 85 200 118 93 200 122 101 190 187 99 206 201 115 205 201 123 200 
208 126 208 202 131 200 209 134 204 211 142 205 211 142 205 211 142 205 211 146 195 209 149 188 
211 152 190 211 152 190 211 152 190 211 152 190 211 152 190 210 151 186 210 151 186 210 151 186 
210 151 186 210 151 186 210 151 186 211 152 190 211 152 190 211 152 190 211 152 190 212 151 192 
209 149 188 211 146 195 211 142 205 211 142 205 211 142 205 209 134 204 202 131 200 208 126 208 
201 123 200 201 115 205 187 99 206 122 101 190 118 93 200 111 85 200 102 73 204 103 76 194 
70 24 119 0 0 0 0 0 0 0 0 0 0 0 0 0 0 0 0 0 0 0 0 0 
0 0 0 0 0 0 0 0 0 0 0 0 0 0 0 0 0 0 0 0 0 0 0 0 

0 0 0 0 0 0 0 0 0 0 0 0 0 0 0 0 0 0 0 0 0 0 0 0 
0 0 0 0 0 0 0 0 0 0 0 0 0 0 0 0 0 0 0 0 0 0 0 0 
80 57 156 103 76 194 111 85 200 118 93 200 122 101 190 158 115 189 201 115 205 201 123 200 
201 123 200 202 131 200 202 131 200 206 143 199 206 143 199 206 143 199 211 146 195 209 149 188 
209 149 188 209 149 188 209 149 188 211 152 190 208 151 183 208 151 183 208 151 183 208 151 183 
208 151 183 208 151 183 208 151 183 208 151 183 209 149 188 211 152 190 209 149 188 209 149 188 
209 149 188 211 146 195 206 143 199 206 143 199 206 143 199 202 131 200 202 131 200 201 123 200 
201 123 200 201 115 205 158 115 189 122 95 202 118 93 200 111 85 200 103 76 194 80 57 156 
0 0 0 0 0 0 0 0 0 0 0 0 0 0 0 0 0 0 0 0 0 0 0 0 
0 0 0 0 0 0 0 0 0 0 0 0 0 0 0 0 0 0 0 0 0 0 0 0 

0 0 0 0 0 0 0 0 0 0 0 0 0 0 0 0 0 0 0 0 0 0 0 0 
0 0 0 0 0 0 0 0 0 0 0 0 0 0 0 0 0 0 0 0 0 0 0 0 
12 4 43 103 76 194 114 91 189 118 93 200 122 101 190 145 95 204 181 120 197 201 123 200 
201 123 200 202 131 200 202 131 200 203 140 197 206 143 199 206 143 199 206 143 199 206 147 184 
206 147 184 209 149 188 209 149 188 208 151 183 206 150 180 206 150 180 206 150 180 206 150 180 
206 150 180 206 150 180 206 150 180 206 150 180 208 151 183 206 147 184 209 149 188 206 147 184 
206 147 184 206 143 199 206 143 199 206 143 199 203 140 197 202 131 200 202 131 200 202 131 200 
201 115 205 191 128 191 145 95 204 122 101 190 114 91 189 114 91 189 103 76 194 12 4 43 
0 0 0 0 0 0 0 0 0 0 0 0 0 0 0 0 0 0 0 0 0 0 0 0 
0 0 0 0 0 0 0 0 0 0 0 0 0 0 0 0 0 0 0 0 0 0 0 0 

0 0 0 0 0 0 0 0 0 0 0 0 0 0 0 0 0 0 0 0 0 0 0 0 
0 0 0 0 0 0 0 0 0 0 0 0 0 0 0 0 0 0 0 0 0 0 0 0 
0 0 0 41 21 79 103 76 194 114 91 189 122 101 190 122 101 190 181 120 197 201 123 200 
191 128 191 202 131 200 193 133 189 203 140 197 203 140 197 203 140 197 206 143 199 204 146 189 
206 147 184 206 147 184 206 147 184 205 148 178 205 148 178 205 148 178 205 148 178 206 150 180 
205 148 178 206 150 180 205 148 178 205 148 178 205 148 178 206 147 184 206 147 184 206 147 184 
204 146 189 203 140 197 203 140 197 203 140 197 203 140 197 193 133 189 202 131 200 191 128 191 
201 123 200 181 120 197 122 101 190 122 101 190 114 91 189 103 76 194 41 21 79 0 3 1 
0 0 0 0 0 0 0 0 0 0 0 0 0 0 0 0 0 0 0 0 0 0 0 0 
0 0 0 0 0 0 0 0 0 0 0 0 0 0 0 0 0 0 0 0 0 0 0 0 

0 0 0 0 0 0 0 0 0 0 0 0 0 0 0 0 0 0 0 0 0 0 0 0 
0 0 0 0 0 0 0 0 0 0 0 0 0 0 0 0 0 0 0 0 0 0 0 0 
0 0 0 0 0 0 81 64 112 114 91 189 122 101 190 122 101 190 141 114 181 191 128 191 
191 128 191 191 128 191 193 133 189 202 131 200 197 139 190 203 140 197 197 139 190 203 140 197 
202 144 181 202 144 181 202 144 181 202 146 176 202 146 176 202 146 176 202 146 176 202 146 176 
202 146 176 202 146 176 202 146 176 202 146 176 202 146 176 202 144 181 202 144 181 202 144 181 
204 146 189 203 140 197 203 140 197 197 139 190 202 131 200 193 133 189 191 128 191 191 128 191 
181 120 197 158 115 189 122 101 190 122 101 190 114 91 189 81 64 112 0 3 1 0 0 0 
0 0 0 0 0 0 0 0 0 0 0 0 0 0 0 0 0 0 0 0 0 0 0 0 
0 0 0 0 0 0 0 0 0 0 0 0 0 0 0 0 0 0 0 0 0 0 0 0 

0 0 0 0 0 0 0 0 0 0 0 0 0 0 0 0 0 0 0 0 0 0 0 0 
0 0 0 0 0 0 0 0 0 0 0 0 0 0 0 0 0 0 0 0 0 0 0 0 
0 0 0 0 0 0 0 0 0 80 57 156 122 111 180 122 101 190 141 114 181 158 115 189 
191 128 191 191 128 191 191 128 191 193 133 189 197 139 190 197 139 190 197 139 190 197 139 190 
197 139 190 202 144 181 199 143 177 199 143 177 199 143 177 198 142 170 202 146 176 199 143 177 
202 146 176 199 143 177 198 142 170 202 146 176 199 143 177 199 143 177 202 144 181 197 139 190 
197 139 190 197 139 190 197 139 190 197 139 190 193 133 189 191 128 191 191 128 191 191 128 191 
181 120 197 122 111 180 122 101 190 122 101 190 81 64 112 2 1 13 0 0 0 0 0 0 
0 0 0 0 0 0 0 0 0 0 0 0 0 0 0 0 0 0 0 0 0 0 0 0 
0 0 0 0 0 0 0 0 0 0 0 0 0 0 0 0 0 0 0 0 0 0 0 0 

0 0 0 0 0 0 0 0 0 0 0 0 0 0 0 0 0 0 0 0 0 0 0 0 
0 0 0 0 0 0 0 0 0 0 0 0 0 0 0 0 0 0 0 0 0 0 0 0 
0 0 0 0 0 0 0 0 0 5 0 0 80 57 156 122 101 190 122 111 180 141 114 181 
179 126 181 191 128 191 187 133 185 191 128 191 193 133 189 196 138 188 196 138 188 197 139 190 
197 139 190 196 138 188 195 139 177 198 142 170 198 142 170 198 142 170 198 142 170 198 142 170 
198 142 170 198 142 170 198 142 170 198 142 170 195 139 177 199 143 177 196 138 188 197 139 190 
197 139 190 197 139 190 196 138 188 193 133 189 187 133 185 191 128 191 191 128 191 179 126 181 
141 114 181 122 101 190 122 111 180 80 57 156 2 1 13 0 0 0 0 0 0 0 0 0 
0 0 0 0 0 0 0 0 0 0 0 0 0 0 0 0 0 0 0 0 0 0 0 0 
0 0 0 0 0 0 0 0 0 0 0 0 0 0 0 0 0 0 0 0 0 0 0 0 

0 0 0 0 0 0 0 0 0 0 0 0 0 0 0 0 0 0 0 0 0 0 0 0 
0 0 0 0 0 0 0 0 0 0 0 0 0 0 0 0 0 0 0 0 0 0 0 0 
0 0 0 0 0 0 0 0 0 0 0 0 2 1 13 80 57 156 122 111 180 122 111 180 
158 115 189 179 126 181 191 128 191 184 130 185 187 133 185 187 133 185 193 133 189 193 136 185 
193 136 185 196 138 188 196 138 188 195 139 177 195 139 168 195 139 168 195 139 168 195 139 168 
195 139 168 195 139 168 195 139 168 195 139 168 195 139 177 196 138 188 196 138 188 196 138 188 
193 136 185 193 136 185 187 133 185 187 133 185 184 130 185 184 130 185 184 130 185 158 115 189 
122 111 180 122 111 180 80 57 156 1 15 7 3 0 0 0 0 0 0 0 0 0 0 0 
0 0 0 0 0 0 0 0 0 0 0 0 0 0 0 0 0 0 0 0 0 0 0 0 
0 0 0 0 0 0 0 0 0 0 0 0 0 0 0 0 0 0 0 0 0 0 0 0 

0 0 0 0 0 0 0 0 0 0 0 0 0 0 0 0 0 0 0 0 0 0 0 0 
0 0 0 0 0 0 0 0 0 0 0 0 0 0 0 0 0 0 0 0 0 0 0 0 
0 0 0 0 0 0 0 0 0 0 0 0 3 0 0 1 15 7 93 123 137 122 111 180 
122 111 180 158 115 189 179 126 181 184 130 185 184 130 185 184 130 185 184 133 184 187 133 185 
193 136 185 193 136 185 193 136 185 193 136 185 193 136 185 195 139 177 195 139 168 195 139 168 
195 139 168 195 139 168 195 139 177 193 136 185 193 136 185 193 136 185 193 136 185 193 136 185 
187 133 185 184 133 184 184 133 184 184 130 185 184 130 185 179 126 181 158 115 189 122 111 180 
122 111 180 93 123 137 1 15 7 0 0 0 0 0 0 0 0 0 0 0 0 0 0 0 
0 0 0 0 0 0 0 0 0 0 0 0 0 0 0 0 0 0 0 0 0 0 0 0 
0 0 0 0 0 0 0 0 0 0 0 0 0 0 0 0 0 0 0 0 0 0 0 0 

0 0 0 0 0 0 0 0 0 0 0 0 0 0 0 0 0 0 0 0 0 0 0 0 
0 0 0 0 0 0 0 0 0 0 0 0 0 0 0 0 0 0 0 0 0 0 0 0 
0 0 0 0 0 0 0 0 0 0 0 0 0 0 0 0 73 8 0 135 2 72 117 97 
122 111 180 122 111 180 158 115 189 179 126 181 179 126 181 179 126 181 183 131 182 183 131 182 
183 131 182 184 133 184 184 133 184 187 133 185 184 133 184 184 133 184 183 131 182 151 132 153 
151 132 153 186 133 173 184 133 184 184 133 184 187 133 185 184 133 184 184 133 184 183 131 182 
183 131 182 183 131 182 183 131 182 179 126 181 179 126 181 158 115 189 122 111 180 122 111 180 
67 121 82 0 135 2 0 92 0 0 0 0 0 0 0 0 0 0 0 0 0 0 0 0 
0 0 0 0 0 0 0 0 0 0 0 0 0 0 0 0 0 0 0 0 0 0 0 0 
0 0 0 0 0 0 0 0 0 0 0 0 0 0 0 0 0 0 0 0 0 0 0 0 

0 0 0 0 0 0 0 0 0 0 0 0 0 0 0 0 0 0 0 0 0 0 0 0 
0 0 0 0 0 0 0 0 0 0 0 0 0 0 0 0 0 0 0 0 0 0 0 0 
0 0 0 0 0 0 0 0 0 0 0 0 0 3 1 0 30 1 0 123 0 0 135 2 
19 128 52 93 123 137 122 111 180 141 114 181 179 126 181 179 126 181 179 126 181 179 126 181 
178 130 180 178 130 180 178 130 180 178 130 180 178 130 180 151 132 153 67 121 82 0 116 0 
0 116 0 67 121 82 151 132 153 178 130 180 178 130 180 178 130 180 178 130 180 178 130 180 
178 130 180 179 126 181 179 126 181 178 130 180 141 114 181 122 111 180 93 123 137 19 128 52 
0 123 0 0 116 0 0 30 1 0 0 0 0 0 0 0 0 0 0 0 0 0 0 0 
0 0 0 0 0 0 0 0 0 0 0 0 0 0 0 0 0 0 0 0 0 0 0 0 
0 0 0 0 0 0 0 0 0 0 0 0 0 0 0 0 0 0 0 0 0 0 0 0 

0 0 0 0 0 0 0 0 0 0 0 0 0 0 0 0 0 0 0 0 0 0 0 0 
0 0 0 0 0 0 0 0 0 0 0 0 0 0 0 0 0 0 0 0 0 0 0 0 
0 0 0 0 0 0 0 0 0 0 0 0 0 0 0 0 0 0 1 15 7 0 92 0 
0 116 0 0 135 2 19 128 52 93 123 137 93 123 137 141 114 181 151 132 153 158 115 189 
151 132 153 151 132 153 151 132 153 79 124 104 19 128 52 0 130 0 0 123 0 0 116 0 
0 107 6 0 130 0 0 123 0 19 128 52 79 124 104 151 132 153 151 132 153 151 132 153 
158 115 189 151 132 153 141 114 181 93 123 137 93 123 137 19 128 52 0 123 0 0 92 0 
0 73 8 0 0 0 0 3 1 0 0 0 0 0 0 0 0 0 0 0 0 0 0 0 
0 0 0 0 0 0 0 0 0 0 0 0 0 0 0 0 0 0 0 0 0 0 0 0 
0 0 0 0 0 0 0 0 0 0 0 0 0 0 0 0 0 0 0 0 0 0 0 0 

0 0 0 0 0 0 0 0 0 0 0 0 0 0 0 0 0 0 0 0 0 0 0 0 
0 0 0 0 0 0 0 0 0 0 0 0 0 0 0 0 0 0 0 0 0 0 0 0 
0 0 0 0 0 0 0 0 0 0 0 0 0 0 0 0 0 0 0 0 0 0 0 0 
0 3 1 0 30 1 0 92 0 0 107 6 0 123 0 0 123 0 0 121 46 2 134 18 
0 123 0 0 123 0 0 130 0 0 130 0 0 123 0 0 130 0 0 130 0 0 116 0 
0 116 0 0 135 2 0 135 2 0 135 2 0 135 2 0 130 0 0 135 2 0 130 0 
2 134 18 2 134 18 2 134 18 0 130 0 0 107 6 0 92 0 0 30 1 0 3 1 
0 0 0 0 0 0 0 0 0 0 0 0 0 0 0 0 0 0 0 0 0 0 0 0 
0 0 0 0 0 0 0 0 0 0 0 0 0 0 0 0 0 0 0 0 0 0 0 0 
0 0 0 0 0 0 0 0 0 0 0 0 0 0 0 0 0 0 0 0 0 0 0 0 

0 0 0 0 0 0 0 0 0 0 0 0 0 0 0 0 0 0 0 0 0 0 0 0 
0 0 0 0 0 0 0 0 0 0 0 0 0 0 0 0 0 0 0 0 0 0 0 0 
0 0 0 0 0 0 0 0 0 0 0 0 0 0 0 0 0 0 0 0 0 0 0 0 
0 0 0 0 30 1 0 93 20 0 121 46 0 130 54 0 130 54 0 130 54 0 121 46 
10 108 48 0 92 0 0 73 8 0 92 0 0 92 0 0 116 0 0 123 0 1 134 52 
0 107 6 0 107 6 0 123 0 0 116 0 0 107 6 0 92 0 0 73 8 0 73 8 
0 53 1 1 15 7 0 0 0 0 0 0 0 0 0 0 0 0 0 0 0 0 0 0 
0 0 0 0 0 0 0 0 0 0 0 0 0 0 0 0 0 0 0 0 0 0 0 0 
0 0 0 0 0 0 0 0 0 0 0 0 0 0 0 0 0 0 0 0 0 0 0 0 
0 0 0 0 0 0 0 0 0 0 0 0 0 0 0 0 0 0 0 0 0 0 0 0 

0 0 0 0 0 0 0 0 0 0 0 0 0 0 0 0 0 0 0 0 0 0 0 0 
0 0 0 0 0 0 0 0 0 0 0 0 0 0 0 0 0 0 0 0 0 0 0 0 
0 0 0 0 0 0 0 0 0 0 0 0 0 0 0 0 0 0 0 0 0 0 0 0 
0 93 20 1 134 52 0 121 46 10 108 48 0 93 20 10 108 48 0 93 20 0 121 46 
1 134 52 1 134 52 1 134 52 0 121 46 0 93 20 0 53 1 0 121 46 0 121 46 
0 30 1 0 30 1 0 53 1 0 53 1 0 53 1 0 93 20 0 121 46 0 121 46 
0 130 54 1 134 52 0 130 54 0 130 54 0 93 20 0 53 1 0 0 0 0 0 0 
0 0 0 0 0 0 0 0 0 0 0 0 0 0 0 0 0 0 0 0 0 0 0 0 
0 0 0 0 0 0 0 0 0 0 0 0 0 0 0 0 0 0 0 0 0 0 0 0 
0 0 0 0 0 0 0 0 0 0 0 0 0 0 0 0 0 0 0 0 0 0 0 0 

0 0 0 0 0 0 0 0 0 0 0 0 0 0 0 0 0 0 0 0 0 0 0 0 
0 0 0 0 0 0 0 0 0 0 0 0 0 0 0 0 0 0 0 0 0 0 0 0 
0 0 0 0 0 0 0 0 0 0 0 0 0 0 0 0 0 0 0 0 0 0 73 8 
0 121 46 0 73 8 0 30 1 0 30 1 12 4 43 28 14 41 49 23 45 49 23 45 
49 23 45 43 41 51 20 75 50 24 123 77 0 130 54 1 134 52 1 134 52 0 73 8 
1 15 7 0 53 1 0 93 20 0 130 54 24 123 77 24 123 77 54 108 82 54 108 82 
49 69 69 36 91 80 54 78 54 10 108 48 24 123 77 1 134 52 0 73 8 0 3 1 
0 0 0 0 0 0 0 0 0 0 0 0 0 0 0 0 0 0 0 0 0 0 0 0 
0 0 0 0 0 0 0 0 0 0 0 0 0 0 0 0 0 0 0 0 0 0 0 0 
0 0 0 0 0 0 0 0 0 0 0 0 0 0 0 0 0 0 0 0 0 0 0 0 

0 0 0 0 0 0 0 0 0 0 0 0 0 0 0 0 0 0 0 0 0 0 0 0 
0 0 0 0 0 0 0 0 0 0 0 0 0 0 0 0 0 0 0 0 0 0 0 0 
0 0 0 0 0 0 0 0 0 0 0 0 0 0 0 0 0 0 0 3 1 0 107 6 
0 92 0 1 15 7 12 4 43 40 0 42 58 8 51 65 13 56 69 23 69 63 33 61 
69 23 69 66 44 71 66 44 71 66 44 71 59 109 98 24 123 77 10 108 48 0 121 46 
0 121 46 19 128 52 24 123 77 58 97 86 65 63 75 63 33 61 69 23 69 65 13 56 
65 13 56 65 13 56 64 3 52 64 3 52 28 14 41 20 75 50 24 123 77 1 15 7 
0 0 0 0 0 0 0 0 0 0 0 0 0 0 0 0 0 0 0 0 0 0 0 0 
0 0 0 0 0 0 0 0 0 0 0 0 0 0 0 0 0 0 0 0 0 0 0 0 
0 0 0 0 0 0 0 0 0 0 0 0 0 0 0 0 0 0 0 0 0 0 0 0 

0 0 0 0 0 0 0 0 0 0 0 0 0 0 0 0 0 0 0 0 0 0 0 0 
0 0 0 0 0 0 0 0 0 0 0 0 0 0 0 0 0 0 0 0 0 0 0 0 
0 0 0 0 0 0 0 0 0 0 0 0 0 0 0 0 0 0 0 3 1 0 93 20 
20 75 50 12 4 43 40 0 42 64 3 52 64 3 52 69 23 69 63 33 61 66 44 71 
69 23 69 63 33 61 65 63 75 72 117 97 59 109 98 59 109 98 59 109 98 54 108 82 
36 91 80 67 121 82 72 117 97 68 98 86 65 63 75 66 44 71 65 13 56 69 23 69 
65 13 56 65 13 56 64 3 52 64 3 52 65 13 56 36 91 80 24 123 77 5 3 23 
1 15 7 1 15 7 0 0 0 0 0 0 0 0 0 0 0 0 0 0 0 0 0 0 
0 0 0 0 0 0 0 0 0 0 0 0 0 0 0 0 0 0 0 0 0 0 0 0 
0 0 0 0 0 0 0 0 0 0 0 0 0 0 0 0 0 0 0 0 0 0 0 0 

0 0 0 0 0 0 0 0 0 0 0 0 0 0 0 0 0 0 0 0 0 0 0 0 
0 0 0 0 0 0 0 0 0 0 0 0 0 0 0 0 0 0 0 0 0 0 0 0 
0 0 0 0 0 0 0 0 0 0 0 0 0 0 0 0 0 0 0 3 1 21 39 48 
24 123 77 49 69 69 59 24 58 58 8 51 59 24 58 63 33 61 50 46 69 66 44 71 
65 63 75 68 98 86 79 124 104 72 117 97 72 117 97 72 117 97 58 97 86 66 75 77 
65 63 75 63 45 62 66 75 77 68 98 86 72 117 97 72 117 97 68 98 86 66 75 77 
65 63 75 66 44 71 63 45 62 65 63 75 66 93 72 59 109 98 48 47 57 12 4 43 
5 3 23 0 0 0 0 0 0 0 0 0 0 0 0 0 0 0 0 0 0 0 0 0 
0 0 0 0 0 0 0 0 0 0 0 0 0 0 0 0 0 0 0 0 0 0 0 0 
0 0 0 0 0 0 0 0 0 0 0 0 0 0 0 0 0 0 0 0 0 0 0 0 

0 0 0 0 0 0 0 0 0 0 0 0 0 0 0 0 0 0 0 0 0 0 0 0 
0 0 0 0 0 0 0 0 0 0 0 0 0 0 0 0 0 0 0 0 0 0 0 0 
0 0 0 0 0 0 0 0 0 0 0 0 0 0 0 0 0 0 2 1 13 5 3 23 
21 39 48 54 108 82 66 108 83 58 97 86 58 97 86 58 97 86 59 109 98 72 117 97 
72 117 97 66 108 83 68 98 86 72 117 97 68 98 86 59 109 98 72 117 97 72 117 97 
72 117 97 66 75 77 63 45 62 63 45 62 65 63 75 66 75 77 68 98 86 72 117 97 
67 121 82 72 117 97 66 108 83 54 108 82 58 97 86 48 47 57 49 7 47 12 4 43 
5 3 23 5 3 23 0 0 0 0 0 0 0 0 0 0 0 0 0 0 0 0 0 0 
0 0 0 0 0 0 0 0 0 0 0 0 0 0 0 0 0 0 0 0 0 0 0 0 
0 0 0 0 0 0 0 0 0 0 0 0 0 0 0 0 0 0 0 0 0 0 0 0 

0 0 0 0 0 0 0 0 0 0 0 0 0 0 0 0 0 0 0 0 0 0 0 0 
0 0 0 0 0 0 0 0 0 0 0 0 0 0 0 0 0 0 0 0 0 0 0 0 
0 0 0 0 0 0 0 0 0 0 0 0 0 0 0 2 1 13 2 1 13 5 3 23 
48 0 36 49 23 45 54 54 62 66 93 72 58 97 86 68 98 86 66 93 72 66 75 77 
65 63 75 66 44 71 66 108 83 66 93 72 72 117 97 68 98 86 55 71 82 55 71 82 
58 97 86 59 109 98 65 63 75 63 45 62 66 93 72 64 25 50 79 25 51 63 33 61 
63 33 61 62 40 54 62 40 54 63 33 61 58 8 51 58 8 51 49 0 44 49 0 44 
5 3 23 2 1 13 2 1 13 0 0 0 0 0 0 0 0 0 0 0 0 0 0 0 
0 0 0 0 0 0 0 0 0 0 0 0 0 0 0 0 0 0 0 0 0 0 0 0 
0 0 0 0 0 0 0 0 0 0 0 0 0 0 0 0 0 0 0 0 0 0 0 0 

0 0 0 0 0 0 0 0 0 0 0 0 0 0 0 0 0 0 0 0 0 0 0 0 
0 0 0 0 0 0 0 0 0 0 0 0 0 0 0 0 0 0 0 0 0 0 0 0 
0 0 0 0 0 0 0 0 0 0 0 0 0 0 0 0 0 0 0 0 0 31 2 24 
48 0 36 48 0 36 49 0 44 49 7 47 59 24 58 63 33 61 63 33 61 63 33 61 
63 33 61 63 45 62 67 121 82 66 93 72 66 108 83 55 71 82 55 71 82 55 71 82 
59 109 98 58 97 86 65 63 75 54 54 62 66 93 72 58 14 24 60 39 43 63 33 61 
63 33 61 64 3 52 64 3 52 64 3 52 49 7 47 49 0 44 48 0 36 48 0 36 
31 2 24 4 0 5 4 0 5 0 0 0 0 0 0 0 0 0 0 0 0 0 0 0 
0 0 0 0 0 0 0 0 0 0 0 0 0 0 0 0 0 0 0 0 0 0 0 0 
0 0 0 0 0 0 0 0 0 0 0 0 0 0 0 0 0 0 0 0 0 0 0 0 

0 0 0 0 0 0 0 0 0 0 0 0 0 0 0 0 0 0 0 0 0 0 0 0 
0 0 0 0 0 0 0 0 0 0 0 0 0 0 0 0 0 0 0 0 0 0 0 0 
0 0 0 0 0 0 0 0 0 0 0 0 0 0 0 0 0 0 9 0 0 41 4 17 
42 0 25 48 0 36 40 0 42 59 24 58 59 24 58 63 45 62 63 33 61 64 25 50 
64 25 50 60 39 43 66 93 72 66 108 83 66 108 83 58 97 86 58 97 86 59 109 98 
58 97 86 55 71 82 49 69 69 66 75 77 66 93 72 58 14 24 64 25 50 63 45 62 
50 46 69 64 25 50 64 3 52 64 3 52 49 0 44 49 0 44 48 0 36 42 0 25 
42 0 25 4 0 5 0 0 0 0 0 0 0 0 0 0 0 0 0 0 0 0 0 0 
0 0 0 0 0 0 0 0 0 0 0 0 0 0 0 0 0 0 0 0 0 0 0 0 
0 0 0 0 0 0 0 0 0 0 0 0 0 0 0 0 0 0 0 0 0 0 0 0 

0 0 0 0 0 0 0 0 0 0 0 0 0 0 0 0 0 0 0 0 0 0 0 0 
0 0 0 0 0 0 0 0 0 0 0 0 0 0 0 0 0 0 0 0 0 0 0 0 
0 0 0 0 0 0 0 0 0 0 0 0 0 0 0 0 0 0 22 0 4 42 3 7 
42 0 25 42 0 25 48 0 36 49 0 44 58 8 51 59 24 58 59 24 58 57 15 39 
58 14 24 60 39 43 60 39 43 54 78 54 66 108 83 59 109 98 55 71 82 55 71 82 
55 71 82 55 71 82 66 75 77 66 93 72 54 78 54 58 14 24 60 39 43 62 40 54 
62 40 54 59 24 58 58 8 51 48 0 36 64 3 52 48 0 36 40 0 42 42 0 25 
42 0 25 22 0 4 0 0 0 0 0 0 0 0 0 0 0 0 0 0 0 0 0 0 
0 0 0 0 0 0 0 0 0 0 0 0 0 0 0 0 0 0 0 0 0 0 0 0 
0 0 0 0 0 0 0 0 0 0 0 0 0 0 0 0 0 0 0 0 0 0 0 0 

0 0 0 0 0 0 0 0 0 0 0 0 0 0 0 0 0 0 0 0 0 0 0 0 
0 0 0 0 0 0 0 0 0 0 0 0 0 0 0 0 0 0 0 0 0 0 0 0 
0 0 0 0 0 0 0 0 0 0 0 0 0 0 0 0 0 0 29 0 0 31 0 0 
42 3 7 41 4 17 52 4 27 52 4 27 52 4 27 48 0 36 52 4 27 56 1 7 
58 14 24 60 39 43 63 45 62 54 54 62 49 69 69 58 97 86 54 108 82 54 108 82 
66 93 72 54 108 82 66 93 72 54 78 54 58 14 24 60 39 43 62 40 54 51 38 46 
51 38 46 57 15 39 64 3 52 49 0 44 48 0 36 48 0 36 40 0 42 31 2 24 
32 0 5 28 0 0 0 0 0 0 0 0 0 0 0 0 0 0 0 0 0 0 0 0 
0 0 0 0 0 0 0 0 0 0 0 0 0 0 0 0 0 0 0 0 0 0 0 0 
0 0 0 0 0 0 0 0 0 0 0 0 0 0 0 0 0 0 0 0 0 0 0 0 

0 0 0 0 0 0 0 0 0 0 0 0 0 0 0 0 0 0 0 0 0 0 0 0 
0 0 0 0 0 0 0 0 0 0 0 0 0 0 0 0 0 0 0 0 0 0 0 0 
0 0 0 0 0 0 0 0 0 0 0 0 0 0 0 5 0 0 28 0 0 31 0 0 
32 0 5 42 3 7 41 4 17 52 4 27 52 4 27 52 4 27 56 1 7 56 1 7 
54 0 0 60 39 43 48 47 57 49 69 69 54 54 62 54 54 62 49 69 69 49 69 69 
49 69 69 54 78 54 60 39 43 60 39 43 60 39 43 54 54 62 50 46 69 48 47 57 
57 15 39 49 23 45 48 0 36 49 0 44 48 0 36 48 0 36 31 2 24 41 4 17 
29 0 0 26 0 0 5 0 0 0 0 0 0 0 0 0 0 0 0 0 0 0 0 0 
0 0 0 0 0 0 0 0 0 0 0 0 0 0 0 0 0 0 0 0 0 0 0 0 
0 0 0 0 0 0 0 0 0 0 0 0 0 0 0 0 0 0 0 0 0 0 0 0 

0 0 0 0 0 0 0 0 0 0 0 0 0 0 0 0 0 0 0 0 0 0 0 0 
0 0 0 0 0 0 0 0 0 0 0 0 0 0 0 0 0 0 0 0 0 0 0 0 
0 0 0 0 0 0 0 0 0 0 0 0 0 0 0 5 0 0 21 0 0 26 0 0 
29 0 0 33 0 0 49 1 4 56 1 7 50 4 17 50 4 17 54 0 0 54 0 0 
54 0 0 58 14 24 48 47 57 48 47 57 48 47 57 51 38 46 51 38 46 54 54 62 
54 54 62 48 47 57 48 47 57 51 38 46 48 47 57 54 54 62 48 47 57 43 41 51 
58 14 24 52 4 27 48 0 36 49 7 47 48 0 36 40 0 42 31 2 24 32 0 5 
24 0 0 19 0 0 7 0 0 0 0 0 0 0 0 0 0 0 0 0 0 0 0 0 
0 0 0 0 0 0 0 0 0 0 0 0 0 0 0 0 0 0 0 0 0 0 0 0 
0 0 0 0 0 0 0 0 0 0 0 0 0 0 0 0 0 0 0 0 0 0 0 0 

0 0 0 0 0 0 0 0 0 0 0 0 0 0 0 0 0 0 0 0 0 0 0 0 
0 0 0 0 0 0 0 0 0 0 0 0 0 0 0 0 0 0 0 0 0 0 0 0 
0 0 0 0 0 0 0 0 0 0 0 0 0 0 0 3 0 0 14 0 0 24 0 0 
26 0 0 31 0 0 46 0 0 49 1 4 50 4 17 52 4 27 54 0 0 54 0 0 
54 0 0 54 0 0 50 4 17 58 14 24 58 14 24 58 14 24 51 38 46 48 47 57 
49 69 69 50 46 69 48 47 57 48 47 57 51 38 46 51 38 46 49 23 45 58 14 24 
50 4 17 54 0 0 50 4 17 42 0 25 48 0 36 42 0 25 31 2 24 22 0 4 
19 0 0 12 0 0 5 0 0 0 0 0 0 0 0 0 0 0 0 0 0 0 0 0 
0 0 0 0 0 0 0 0 0 0 0 0 0 0 0 0 0 0 0 0 0 0 0 0 
0 0 0 0 0 0 0 0 0 0 0 0 0 0 0 0 0 0 0 0 0 0 0 0 

0 0 0 0 0 0 0 0 0 0 0 0 0 0 0 0 0 0 0 0 0 0 0 0 
0 0 0 0 0 0 0 0 0 0 0 0 0 0 0 0 0 0 0 0 0 0 0 0 
0 0 0 0 0 0 0 0 0 0 0 0 0 0 0 0 0 0 7 0 0 17 0 0 
19 0 0 29 0 0 42 0 0 46 0 0 42 0 25 48 0 36 42 0 25 49 1 4 
54 0 0 54 0 0 54 0 0 54 0 0 54 0 0 54 0 0 49 23 45 48 47 57 
50 46 69 49 69 69 50 46 69 43 41 51 49 23 45 49 1 4 49 1 4 54 0 0 
46 0 0 46 0 0 49 1 4 50 4 17 42 3 7 39 0 0 24 0 0 19 0 0 
12 0 0 3 0 0 0 0 0 0 0 0 0 0 0 0 0 0 0 0 0 0 0 0 
0 0 0 0 0 0 0 0 0 0 0 0 0 0 0 0 0 0 0 0 0 0 0 0 
0 0 0 0 0 0 0 0 0 0 0 0 0 0 0 0 0 0 0 0 0 0 0 0 

0 0 0 0 0 0 0 0 0 0 0 0 0 0 0 0 0 0 0 0 0 0 0 0 
0 0 0 0 0 0 0 0 0 0 0 0 0 0 0 0 0 0 0 0 0 0 0 0 
0 0 0 0 0 0 0 0 0 0 0 0 0 0 0 0 0 0 0 0 0 7 0 0 
12 0 0 24 0 0 39 0 0 42 0 0 42 0 25 39 15 42 43 13 22 43 13 22 
41 4 17 46 0 0 54 0 0 46 0 0 49 1 4 49 1 4 43 13 22 43 41 51 
43 41 51 43 41 51 43 41 51 43 41 51 43 41 51 43 13 22 54 0 0 46 0 0 
46 0 0 46 0 0 46 0 0 42 0 0 42 0 0 39 0 0 23 0 0 12 0 0 
5 0 0 0 0 0 0 0 0 0 0 0 0 0 0 0 0 0 0 0 0 0 0 0 
0 0 0 0 0 0 0 0 0 0 0 0 0 0 0 0 0 0 0 0 0 0 0 0 
0 0 0 0 0 0 0 0 0 0 0 0 0 0 0 0 0 0 0 0 0 0 0 0 

0 0 0 0 0 0 0 0 0 0 0 0 0 0 0 0 0 0 0 0 0 0 0 0 
0 0 0 0 0 0 0 0 0 0 0 0 0 0 0 0 0 0 0 0 0 0 0 0 
0 0 0 0 0 0 0 0 0 0 0 0 0 0 0 0 0 0 0 0 0 0 0 0 
3 0 0 19 0 0 35 0 0 35 0 0 31 2 24 42 0 25 31 2 24 43 13 22 
41 4 17 42 0 0 42 0 0 50 4 17 41 4 17 49 1 4 43 13 22 49 23 45 
49 23 45 43 41 51 43 41 51 39 15 42 43 41 51 39 15 42 42 3 7 42 0 0 
46 0 0 42 0 0 42 0 0 42 0 0 42 0 0 35 0 0 17 0 0 5 0 0 
0 0 0 0 0 0 0 0 0 0 0 0 0 0 0 0 0 0 0 0 0 0 0 0 
0 0 0 0 0 0 0 0 0 0 0 0 0 0 0 0 0 0 0 0 0 0 0 0 
0 0 0 0 0 0 0 0 0 0 0 0 0 0 0 0 0 0 0 0 0 0 0 0 

0 0 0 0 0 0 0 0 0 0 0 0 0 0 0 0 0 0 0 0 0 0 0 0 
0 0 0 0 0 0 0 0 0 0 0 0 0 0 0 0 0 0 0 0 0 0 0 0 
0 0 0 0 0 0 0 0 0 0 0 0 0 0 0 0 0 0 0 0 0 0 0 0 
0 0 0 12 0 0 31 0 0 35 0 0 32 0 5 31 2 24 42 3 7 35 0 0 
39 0 0 42 0 0 42 0 0 42 0 0 42 0 0 46 0 0 42 3 7 41 4 17 
43 13 22 26 15 24 49 23 45 26 15 24 49 23 45 26 15 24 41 4 17 42 0 0 
42 0 0 39 0 0 42 0 0 39 0 0 35 0 0 35 0 0 12 0 0 0 0 0 
0 0 0 0 0 0 0 0 0 0 0 0 0 0 0 0 0 0 0 0 0 0 0 0 
0 0 0 0 0 0 0 0 0 0 0 0 0 0 0 0 0 0 0 0 0 0 0 0 
0 0 0 0 0 0 0 0 0 0 0 0 0 0 0 0 0 0 0 0 0 0 0 0 

0 0 0 0 0 0 0 0 0 0 0 0 0 0 0 0 0 0 0 0 0 0 0 0 
0 0 0 0 0 0 0 0 0 0 0 0 0 0 0 0 0 0 0 0 0 0 0 0 
0 0 0 0 0 0 0 0 0 0 0 0 0 0 0 0 0 0 0 0 0 0 0 0 
0 0 0 3 0 0 28 0 0 29 0 0 31 0 0 32 0 5 32 0 5 35 0 0 
35 0 0 39 0 0 42 0 0 42 0 0 42 0 0 46 0 0 42 0 0 42 0 0 
42 3 7 43 13 22 26 15 24 43 41 51 26 15 24 21 39 48 26 15 24 35 0 0 
35 0 0 35 0 0 35 0 0 35 0 0 33 0 0 29 0 0 3 0 0 0 0 0 
0 0 0 0 0 0 0 0 0 0 0 0 0 0 0 0 0 0 0 0 0 0 0 0 
0 0 0 0 0 0 0 0 0 0 0 0 0 0 0 0 0 0 0 0 0 0 0 0 
0 0 0 0 0 0 0 0 0 0 0 0 0 0 0 0 0 0 0 0 0 0 0 0 

0 0 0 0 0 0 0 0 0 0 0 0 0 0 0 0 0 0 0 0 0 0 0 0 
0 0 0 0 0 0 0 0 0 0 0 0 0 0 0 0 0 0 0 0 0 0 0 0 
0 0 0 0 0 0 0 0 0 0 0 0 0 0 0 0 0 0 0 0 0 0 0 0 
0 0 0 0 0 0 23 0 0 26 0 0 26 0 0 26 0 0 31 2 24 29 0 0 
33 0 0 35 0 0 39 0 0 42 0 0 42 0 0 42 0 0 42 0 0 39 0 0 
33 0 0 27 3 14 26 15 24 26 15 24 26 15 24 26 15 24 26 15 24 26 15 24 
33 0 0 33 0 0 33 0 0 31 0 0 31 0 0 24 0 0 0 0 0 0 0 0 
0 0 0 0 0 0 0 0 0 0 0 0 0 0 0 0 0 0 0 0 0 0 0 0 
0 0 0 0 0 0 0 0 0 0 0 0 0 0 0 0 0 0 0 0 0 0 0 0 
0 0 0 0 0 0 0 0 0 0 0 0 0 0 0 0 0 0 0 0 0 0 0 0 

0 0 0 0 0 0 0 0 0 0 0 0 0 0 0 0 0 0 0 0 0 0 0 0 
0 0 0 0 0 0 0 0 0 0 0 0 0 0 0 0 0 0 0 0 0 0 0 0 
0 0 0 0 0 0 0 0 0 0 0 0 0 0 0 0 0 0 0 0 0 0 0 0 
0 0 0 0 0 0 17 0 0 23 0 0 24 0 0 22 0 4 22 0 4 22 0 4 
26 0 0 29 0 0 35 0 0 35 0 0 39 0 0 39 0 0 39 0 0 35 0 0 
33 0 0 27 3 14 27 3 14 29 0 0 31 0 0 31 0 0 26 0 0 24 0 0 
26 0 0 29 0 0 29 0 0 26 0 0 24 0 0 19 0 0 0 0 0 0 0 0 
0 0 0 0 0 0 0 0 0 0 0 0 0 0 0 0 0 0 0 0 0 0 0 0 
0 0 0 0 0 0 0 0 0 0 0 0 0 0 0 0 0 0 0 0 0 0 0 0 
0 0 0 0 0 0 0 0 0 0 0 0 0 0 0 0 0 0 0 0 0 0 0 0 

0 0 0 0 0 0 0 0 0 0 0 0 0 0 0 0 0 0 0 0 0 0 0 0 
0 0 0 0 0 0 0 0 0 0 0 0 0 0 0 0 0 0 0 0 0 0 0 0 
0 0 0 0 0 0 0 0 0 0 0 0 0 0 0 0 0 0 0 0 0 0 0 0 
0 0 0 0 0 0 12 0 0 19 0 0 21 0 0 21 0 0 19 0 0 17 0 0 
21 0 0 23 0 0 24 0 0 26 0 0 29 0 0 31 0 0 31 0 0 31 0 0 
29 0 0 26 0 0 26 0 0 28 0 0 28 0 0 28 0 0 28 0 0 26 0 0 
24 0 0 24 0 0 23 0 0 21 0 0 19 0 0 9 0 0 0 0 0 0 0 0 
0 0 0 0 0 0 0 0 0 0 0 0 0 0 0 0 0 0 0 0 0 0 0 0 
0 0 0 0 0 0 0 0 0 0 0 0 0 0 0 0 0 0 0 0 0 0 0 0 
0 0 0 0 0 0 0 0 0 0 0 0 0 0 0 0 0 0 0 0 0 0 0 0 

0 0 0 0 0 0 0 0 0 0 0 0 0 0 0 0 0 0 0 0 0 0 0 0 
0 0 0 0 0 0 0 0 0 0 0 0 0 0 0 0 0 0 0 0 0 0 0 0 
0 0 0 0 0 0 0 0 0 0 0 0 0 0 0 0 0 0 0 0 0 0 0 0 
0 0 0 0 0 0 5 0 0 17 0 0 19 0 0 21 0 0 19 0 0 14 0 0 
14 0 0 14 0 0 12 0 0 14 0 0 17 0 0 21 0 0 24 0 0 26 0 0 
29 0 0 26 0 0 24 0 0 23 0 0 21 0 0 21 0 0 21 0 0 19 0 0 
17 0 0 19 0 0 19 0 0 17 0 0 14 0 0 3 0 0 0 0 0 0 0 0 
0 0 0 0 0 0 0 0 0 0 0 0 0 0 0 0 0 0 0 0 0 0 0 0 
0 0 0 0 0 0 0 0 0 0 0 0 0 0 0 0 0 0 0 0 0 0 0 0 
0 0 0 0 0 0 0 0 0 0 0 0 0 0 0 0 0 0 0 0 0 0 0 0 

0 0 0 0 0 0 0 0 0 0 0 0 0 0 0 0 0 0 0 0 0 0 0 0 
0 0 0 0 0 0 0 0 0 0 0 0 0 0 0 0 0 0 0 0 0 0 0 0 
0 0 0 0 0 0 0 0 0 0 0 0 0 0 0 0 0 0 0 0 0 0 0 0 
0 0 0 0 0 0 0 0 0 9 0 0 12 0 0 9 0 0 9 0 0 9 0 0 
7 0 0 5 0 0 2 0 0 0 0 0 4 0 5 9 0 0 14 0 0 19 0 0 
23 0 0 23 0 0 21 0 0 21 0 0 17 0 0 17 0 0 17 0 0 12 0 0 
9 0 0 7 0 0 7 0 0 7 0 0 5 0 0 0 0 0 0 0 0 0 0 0 
0 0 0 0 0 0 0 0 0 0 0 0 0 0 0 0 0 0 0 0 0 0 0 0 
0 0 0 0 0 0 0 0 0 0 0 0 0 0 0 0 0 0 0 0 0 0 0 0 
0 0 0 0 0 0 0 0 0 0 0 0 0 0 0 0 0 0 0 0 0 0 0 0 

0 0 0 0 0 0 0 0 0 0 0 0 0 0 0 0 0 0 0 0 0 0 0 0 
0 0 0 0 0 0 0 0 0 0 0 0 0 0 0 0 0 0 0 0 0 0 0 0 
0 0 0 0 0 0 0 0 0 0 0 0 0 0 0 0 0 0 0 0 0 0 0 0 
0 0 0 0 0 0 0 0 0 0 0 0 0 0 0 0 0 0 3 0 0 3 0 0 
0 0 0 0 0 0 0 0 0 0 0 0 0 0 0 0 0 0 3 0 0 3 0 0 
3 0 0 7 0 0 12 0 0 14 0 0 14 0 0 14 0 0 9 0 0 3 0 0 
2 0 0 2 0 0 3 0 0 0 0 0 0 0 0 0 0 0 0 0 0 0 0 0 
0 0 0 0 0 0 0 0 0 0 0 0 0 0 0 0 0 0 0 0 0 0 0 0 
0 0 0 0 0 0 0 0 0 0 0 0 0 0 0 0 0 0 0 0 0 0 0 0 
0 0 0 0 0 0 0 0 0 0 0 0 0 0 0 0 0 0 0 0 0 0 0 0 

0 0 0 0 0 0 0 0 0 0 0 0 0 0 0 0 0 0 0 0 0 0 0 0 
0 0 0 0 0 0 0 0 0 0 0 0 0 0 0 0 0 0 0 0 0 0 0 0 
0 0 0 0 0 0 0 0 0 0 0 0 0 0 0 0 0 0 0 0 0 0 0 0 
0 0 0 0 0 0 0 0 0 0 0 0 0 0 0 0 0 0 0 0 0 0 0 0 
0 0 0 0 0 0 0 0 0 0 0 0 0 0 0 0 0 0 0 0 0 0 0 0 
0 0 0 0 0 0 0 0 0 2 0 0 5 0 0 7 0 0 2 0 0 0 0 0 
0 0 0 0 0 0 0 0 0 0 0 0 0 0 0 0 0 0 0 0 0 0 0 0 
0 0 0 0 0 0 0 0 0 0 0 0 0 0 0 0 0 0 0 0 0 0 0 0 
0 0 0 0 0 0 0 0 0 0 0 0 0 0 0 0 0 0 0 0 0 0 0 0 
0 0 0 0 0 0 0 0 0 0 0 0 0 0 0 0 0 0 0 0 0 0 0 0 

0 0 0 0 0 0 0 0 0 0 0 0 0 0 0 0 0 0 0 0 0 0 0 0 
0 0 0 0 0 0 0 0 0 0 0 0 0 0 0 0 0 0 0 0 0 0 0 0 
0 0 0 0 0 0 0 0 0 0 0 0 0 0 0 0 0 0 0 0 0 0 0 0 
0 0 0 0 0 0 0 0 0 0 0 0 0 0 0 0 0 0 0 0 0 0 0 0 
0 0 0 0 0 0 0 0 0 0 0 0 0 0 0 0 0 0 0 0 0 0 0 0 
0 0 0 0 0 0 0 0 0 0 0 0 0 0 0 0 0 0 0 0 0 0 0 0 
0 0 0 0 0 0 0 0 0 0 0 0 0 0 0 0 0 0 0 0 0 0 0 0 
0 0 0 0 0 0 0 0 0 0 0 0 0 0 0 0 0 0 0 0 0 0 0 0 
0 0 0 0 0 0 0 0 0 0 0 0 0 0 0 0 0 0 0 0 0 0 0 0 
0 0 0 0 0 0 0 0 0 0 0 0 0 0 0 0 0 0 0 0 0 0 0 0 

